<svg width="162" height="179" viewBox="0 0 162 179" fill="none" xmlns="http://www.w3.org/2000/svg">
<path fill-rule="evenodd" clip-rule="evenodd" d="M128.657 119.829C128.928 119.394 129.168 118.87 129.191 118.664C129.214 118.458 129.391 118.345 129.585 118.413C130.036 118.571 130.715 117.904 130.412 117.601C130.272 117.462 130.466 117.298 130.905 117.183C131.471 117.036 131.661 116.818 131.778 116.181C131.89 115.569 132.016 115.418 132.282 115.574C132.552 115.732 132.68 115.609 132.822 115.058C132.95 114.565 133.125 114.373 133.375 114.454C133.577 114.52 134.1 114.245 134.538 113.844C135.164 113.27 135.283 112.944 135.096 112.315C134.965 111.875 134.968 111.625 135.102 111.759C135.372 112.028 137.62 110.072 137.682 109.515C137.703 109.326 138.27 108.669 138.943 108.054C139.982 107.105 140.152 106.793 140.074 105.988C140.003 105.251 140.098 105.043 140.501 105.056C141.249 105.08 142.57 103.513 142.382 102.825C142.256 102.363 142.334 102.26 142.795 102.275C143.201 102.288 143.307 102.198 143.168 101.962C143.044 101.752 143.533 101.065 144.504 100.085C145.346 99.235 146.318 97.9238 146.664 97.1712C147.01 96.4187 147.589 95.5599 147.951 95.2625C148.313 94.9653 148.602 94.511 148.593 94.2536C148.584 93.9959 148.732 93.6215 148.923 93.4215C149.646 92.6612 150.415 91.274 150.47 90.6299C150.501 90.2613 150.868 89.6305 151.285 89.2284C151.701 88.8259 152.09 88.2342 152.148 87.9134C152.207 87.5922 152.567 86.866 152.949 86.299C153.331 85.732 153.55 85.1751 153.435 85.061C153.321 84.9471 153.372 84.7083 153.55 84.5306C153.727 84.3527 153.888 83.874 153.908 83.4669C153.928 83.0597 154.137 82.6614 154.372 82.5817C154.607 82.5018 154.905 81.8938 155.034 81.2306C155.181 80.4771 155.4 80.0708 155.62 80.1477C155.833 80.2224 155.97 80.1051 155.969 79.8478C155.968 79.6152 156.316 78.4102 156.743 77.1699C157.17 75.9298 157.515 74.5092 157.511 74.0133C157.506 73.5173 157.678 73.0519 157.893 72.9791C158.159 72.8884 158.118 72.6823 157.76 72.3255C157.368 71.9354 157.355 71.8075 157.706 71.8182C158.032 71.828 158.295 71.5124 158.572 70.7783C158.792 70.1987 158.989 69.7023 159.012 69.6755C159.035 69.6487 158.818 69.3883 158.529 69.0976C158.15 68.7156 158.135 68.6129 158.473 68.7278C158.865 68.8605 158.955 68.7707 159.017 68.1871C159.058 67.8021 159.025 67.4208 158.943 67.3394C158.862 67.2583 159.072 66.7744 159.41 66.264C160.306 64.9141 160.865 63.09 160.496 62.7217C160.32 62.5463 160.294 62.2841 160.439 62.1393C160.583 61.9943 160.658 61.3953 160.605 60.8086C160.552 60.2215 160.633 59.727 160.785 59.7095C160.937 59.6921 160.989 59.3198 160.9 58.8822C160.81 58.4445 160.923 57.9 161.151 57.6721C161.4 57.422 161.422 57.1162 161.206 56.9011C161.01 56.7051 160.952 56.24 161.079 55.8676C161.206 55.4952 161.123 55.0025 160.896 54.7729C160.59 54.4634 160.6 54.395 160.936 54.5087C161.297 54.6309 161.419 54.4606 161.54 53.6681C161.623 53.1211 161.559 52.5416 161.399 52.3802C161.238 52.2188 161.27 51.9231 161.469 51.723C161.669 51.5229 161.748 51.275 161.644 51.1719C161.541 51.069 161.593 50.3864 161.76 49.6549C161.926 48.9236 161.956 48.2185 161.825 48.0882C161.695 47.958 161.71 47.7286 161.86 47.5785C162.011 47.427 161.923 47.0977 161.663 46.838C161.402 46.5782 161.314 46.2489 161.466 46.0974C161.615 45.9473 161.632 45.7193 161.503 45.5907C161.374 45.4621 161.37 45.2544 161.495 45.129C161.832 44.7885 161.642 42.1743 161.302 42.4888C161.147 42.633 161.172 42.3318 161.358 41.8196C161.545 41.3076 161.649 40.3676 161.59 39.731C161.531 39.0945 161.553 38.5039 161.638 38.4184C161.723 38.333 161.637 38.1081 161.447 37.9184C161.257 37.7288 161.177 37.1939 161.269 36.7294C161.361 36.2651 161.271 35.0828 161.069 34.1024C160.868 33.122 160.791 32.2312 160.899 32.123C161.146 31.8752 160.719 29.577 160.359 29.215C160.212 29.0667 160.155 28.5264 160.233 28.014C160.311 27.5018 160.156 26.7596 159.889 26.3648C159.622 25.9702 159.493 25.5585 159.601 25.4497C159.92 25.1303 159.59 23.0103 159.155 22.5761C158.935 22.3567 158.816 21.9938 158.892 21.7696C158.967 21.5456 158.853 21.1871 158.638 20.9732C158.424 20.759 158.219 20.2695 158.184 19.885C158.096 18.9304 157.618 17.7793 157.092 17.2552C156.852 17.0158 156.578 16.4264 156.483 15.9451C156.388 15.464 156.13 14.973 155.909 14.854C155.665 14.7225 155.643 14.5293 155.853 14.3615C156.384 13.9375 155.915 13.4214 155.136 13.5723C154.754 13.6464 154.62 13.6226 154.837 13.519C155.177 13.3571 155.156 12.0607 154.807 11.7135C154.742 11.648 154.463 10.9414 154.188 10.1436C153.774 8.94062 153.576 8.6532 153.029 8.46424C152.556 8.30085 152.338 8.09533 152.26 7.73784C152.144 7.20395 151.268 6.59977 151 6.86844C150.911 6.95776 150.742 6.93548 150.626 6.81902C150.509 6.70234 150.631 6.4984 150.898 6.36542C151.224 6.20356 151.268 6.00886 151.033 5.77455C150.84 5.58234 150.674 5.17372 150.663 4.86656C150.646 4.37776 150.525 4.27961 149.691 4.07899C148.652 3.82919 147.743 3.09838 148.067 2.77349C148.214 2.62633 148.131 2.53903 147.769 2.46139C147.494 2.40202 147.086 2.07967 146.864 1.74507C146.325 0.935753 145.197 0.795695 144.903 1.50145C144.769 1.82126 144.852 2.12509 145.109 2.26426C145.348 2.39307 145.43 2.60452 145.293 2.7415C145.028 3.00745 144.196 2.56158 143.845 1.96529C143.726 1.76239 143.744 1.48054 143.885 1.33883C144.212 1.01085 143.84 0.62362 143.356 0.788196C143.154 0.856656 143.058 1.25001 143.142 1.66222C143.308 2.47994 143.892 3.20901 144.163 2.93724C144.368 2.73114 145.343 3.75314 145.323 4.15315C145.315 4.30926 145.522 4.72435 145.783 5.07563C146.044 5.4271 146.223 5.92852 146.181 6.18962C146.139 6.45095 146.397 6.95536 146.753 7.31032C147.164 7.72024 147.468 8.4443 147.586 9.29361C147.719 10.2483 148 10.8661 148.565 11.4485C149.16 12.0613 149.279 12.3452 149.042 12.5845C148.753 12.8753 148.882 13.2056 149.388 13.4742C149.495 13.531 149.492 13.8343 149.382 14.148C149.228 14.5852 149.343 14.8391 149.875 15.2321C150.389 15.6124 150.493 15.8213 150.276 16.0392C150.114 16.2011 150.088 16.4386 150.217 16.5672C150.346 16.6958 150.329 16.9238 150.18 17.0739C150.03 17.224 150.021 17.4595 150.159 17.5972C150.297 17.7352 150.448 18.1406 150.493 18.4981C150.552 18.9579 150.706 19.1647 151.019 19.2038C151.688 19.2873 151.905 19.6233 151.472 19.9034C151.247 20.0488 151.232 20.2994 151.437 20.5037C151.631 20.6966 151.688 21.0802 151.564 21.356C151.441 21.6317 151.483 21.9593 151.657 22.0836C151.832 22.2078 151.867 22.4182 151.735 22.5508C151.602 22.6834 151.564 23.2307 151.649 23.767C151.793 24.6767 151.834 24.7273 152.248 24.5185C152.557 24.3634 152.554 24.4515 152.237 24.8071C151.917 25.1657 151.897 25.7977 152.169 26.9153C152.752 29.3116 152.793 29.9799 152.377 30.2497C152.129 30.411 152.16 30.6943 152.469 31.079C152.753 31.4313 152.813 31.7898 152.621 31.9824C152.438 32.166 152.524 32.8262 152.824 33.5376C153.111 34.2174 153.282 34.8659 153.205 34.9784C152.705 35.704 152.628 36.4881 152.989 37.1894C153.218 37.634 153.498 38.0636 153.611 38.1437C153.723 38.224 153.73 38.4082 153.625 38.5527C153.52 38.6973 153.377 38.9221 153.307 39.0521C153.237 39.182 153.04 39.4532 152.869 39.655C152.643 39.9207 152.712 40.1237 153.121 40.3938C153.57 40.6902 153.596 40.856 153.249 41.2042C153.009 41.4449 152.932 41.7614 153.079 41.9073C153.423 42.251 153.576 43.9709 153.359 45.0644C153.266 45.5349 153.304 46.1299 153.443 46.3865C153.583 46.6432 153.536 47.0147 153.339 47.2121C153.142 47.4093 153.024 47.6907 153.075 47.8368C153.127 47.9832 153.481 47.7334 153.862 47.2819C154.48 46.5486 154.539 46.5339 154.415 47.145C154.32 47.6164 154.444 47.9297 154.814 48.1529C155.472 48.5494 155.31 48.7629 154.405 48.6945C153.785 48.6477 153.739 48.7358 153.866 49.7265C153.942 50.3223 153.894 50.6994 153.759 50.565C153.439 50.2455 152.946 50.7438 153.184 51.1464C153.285 51.3172 153.237 51.6503 153.077 51.8865C152.896 52.1552 152.968 52.4968 153.27 52.798C153.942 53.4674 153.938 53.8896 153.261 53.8678C152.88 53.8556 152.774 53.9357 152.947 54.1074C153.089 54.2491 153.067 54.6359 152.899 54.9667C152.731 55.2975 152.74 55.7147 152.919 55.8936C153.127 56.101 153.044 56.4217 152.689 56.7775C152.149 57.3194 151.819 59.5807 152.095 60.8468C152.168 61.1797 152.107 61.4659 151.959 61.4829C151.812 61.4997 151.611 62.0161 151.514 62.6301C151.417 63.2443 151.284 63.6932 151.218 63.6277C150.975 63.3855 150.712 65.498 150.905 66.151C151.014 66.5232 150.96 66.844 150.785 66.8641C150.61 66.8842 150.471 67.1017 150.476 67.3476C150.482 67.5933 150.193 68.2367 149.835 68.7772C149.477 69.3179 149.134 70.3191 149.072 71.0021C149.012 71.685 148.794 72.4121 148.589 72.6176C148.385 72.823 148.088 73.4694 147.931 74.0542C147.773 74.639 147.551 75.1691 147.437 75.2321C147.323 75.2951 147.268 75.7502 147.316 76.2432C147.379 76.8922 147.232 77.2275 146.785 77.4572C146.388 77.6605 146.152 78.0577 146.127 78.5616C146.106 78.9944 145.736 79.7015 145.307 80.1326C144.798 80.6425 144.607 81.0673 144.76 81.3485C144.889 81.586 144.934 81.9606 144.86 82.1809C144.785 82.4037 144.672 82.4313 144.606 82.2432C144.538 82.0514 144.425 82.0874 144.344 82.3263C144.266 82.5584 144.369 82.9274 144.573 83.1466C144.778 83.3658 144.801 83.4722 144.626 83.3833C144.248 83.1915 142.947 84.7607 143.241 85.0539C143.353 85.165 143.251 85.3211 143.016 85.4011C142.656 85.5235 142.195 86.3971 141.208 88.8299C140.992 89.3624 140.485 90.0646 139.247 91.5484C138.667 92.2436 138.244 92.9647 138.308 93.1506C138.417 93.4719 138.023 93.9924 136.022 96.1732C135.544 96.694 135.196 97.273 135.249 97.4599C135.303 97.6467 135.021 98.1818 134.623 98.6488C134.225 99.1161 133.857 99.5527 133.805 99.619C133.753 99.6855 133.736 100.224 133.767 100.816C133.815 101.718 133.733 101.881 133.264 101.823C132.957 101.784 132.598 101.646 132.468 101.516C132.133 101.182 129.887 104.024 129.837 104.844C129.809 105.318 129.636 105.526 129.2 105.606C128.856 105.67 128.391 106.071 128.108 106.548C127.837 107.005 125.649 109.417 123.246 111.908C120.843 114.4 118.7 116.631 118.483 116.866C118.267 117.102 118.144 117.713 118.209 118.225L118.329 119.156L117.713 118.664C117.163 118.224 117.042 118.255 116.59 118.949C116.311 119.377 116.109 120.059 116.14 120.466C116.195 121.164 116.173 121.179 115.724 120.731C115.338 120.346 115.115 120.378 114.533 120.904C112.852 122.422 112.052 123.375 112.069 123.841C112.082 124.21 111.921 124.318 111.446 124.258C110.652 124.159 107.21 127.489 107.43 128.144C107.517 128.401 107.417 128.399 107.152 128.139C106.709 127.703 106.102 128.141 105.777 129.13C105.66 129.484 105.422 129.629 105.101 129.544C104.828 129.472 104.055 129.844 103.384 130.372C102.712 130.899 101.88 131.537 101.535 131.79C101.191 132.044 100.963 132.406 101.03 132.594C101.106 132.808 100.938 132.916 100.588 132.882C99.9282 132.816 98.4438 133.97 98.7698 134.295C98.892 134.417 98.5297 134.656 97.9645 134.827C97.3994 134.997 96.6723 135.477 96.3488 135.892C95.9235 136.438 95.7027 136.541 95.552 136.263C95.3665 135.922 94.8427 136.133 94.4958 136.689C94.4305 136.794 93.7 137.208 92.8724 137.61C92.0445 138.012 90.9316 138.722 90.3992 139.189C89.8667 139.655 89.1983 140.132 88.9135 140.247C88.5033 140.413 88.4982 140.704 88.8894 141.649C89.2874 142.612 89.2815 142.802 88.8596 142.636C88.5719 142.523 88.2821 142.277 88.2151 142.088C88.1482 141.899 87.9971 141.841 87.8795 141.959C87.7179 142.121 87.6365 142.043 87.5493 141.644C87.4578 141.224 87.3175 141.17 86.8789 141.384C86.0177 141.805 85.9799 141.921 86.5864 142.287C87.064 142.575 87.0626 142.71 86.5788 143.161C86.1077 143.601 85.9083 143.598 85.4553 143.146C84.6433 142.337 83.2978 142.251 82.924 142.986C82.7541 143.319 82.1497 143.735 81.5565 143.925C80.7654 144.179 80.509 144.386 80.5538 144.737C80.5986 145.087 80.3869 145.171 79.7268 145.065C79.0521 144.958 78.7138 145.098 78.3144 145.652C78.0105 146.073 77.6152 146.322 77.3765 146.243C77.1495 146.167 76.5452 146.26 76.0333 146.448C75.2487 146.736 75.1264 146.875 75.2525 147.332C75.3661 147.745 75.2861 147.86 74.9172 147.814C74.6506 147.781 74.3072 147.628 74.1535 147.475C73.7534 147.076 71.4001 147.727 70.2253 148.561C69.6754 148.952 68.9215 149.291 68.5505 149.315C68.1796 149.338 67.7567 149.477 67.6109 149.624C67.465 149.77 66.7368 150.028 65.9924 150.196C65.1329 150.391 64.3008 150.84 63.7129 151.427C63.0037 152.135 62.7082 152.265 62.452 151.984C62.2457 151.757 61.8969 151.78 61.5443 152.042C61.2291 152.277 60.8842 152.382 60.7778 152.276C60.5129 152.012 58.4706 152.694 57.944 153.222C57.709 153.458 57.2567 153.595 56.939 153.526C56.3091 153.391 55.5488 153.954 55.8955 154.299C56.0137 154.417 56.2655 154.465 56.4555 154.404C56.6676 154.337 56.6894 154.421 56.5119 154.621C56.3529 154.801 55.7588 154.776 55.1913 154.566C54.6238 154.356 54.1073 154.34 54.0434 154.53C53.9794 154.72 53.8353 154.785 53.7232 154.673C53.6109 154.561 53.2297 154.782 52.8758 155.163C52.515 155.553 52.0765 155.766 51.8774 155.649C51.6825 155.535 51.417 155.547 51.2879 155.676C51.1587 155.806 50.7933 155.856 50.4756 155.788C50.1578 155.719 49.7447 155.817 49.5576 156.005C49.3702 156.193 48.8244 156.297 48.3444 156.237C47.7821 156.167 47.3571 156.319 47.1489 156.665C46.9711 156.96 46.6715 157.123 46.4834 157.026C46.2542 156.909 46.1894 157.014 46.2875 157.344C46.4113 157.76 46.3667 157.805 46.0017 157.631C45.6696 157.473 45.6124 157.516 45.7553 157.821C45.8982 158.125 45.8015 158.199 45.3388 158.141C45.0073 158.1 44.6539 158.265 44.5535 158.508C44.4135 158.847 44.3751 158.84 44.3895 158.477C44.4052 158.078 44.3369 158.01 43.9569 158.046C43.7088 158.069 43.3724 158.2 43.2097 158.337C43.0469 158.474 42.7551 158.713 42.5616 158.87C42.3682 159.026 42.0512 158.995 41.8577 158.802C41.6129 158.558 41.3155 158.643 40.8802 159.079C40.5014 159.459 40.0471 159.626 39.7293 159.501C39.4406 159.387 39.0512 159.399 38.8644 159.527C38.6775 159.654 38.2619 159.75 37.941 159.74C37.6198 159.73 37.2652 159.941 37.1531 160.21C37.0327 160.498 36.7091 160.646 36.3631 160.572C36.0405 160.502 35.6432 160.578 35.48 160.74C35.3168 160.902 34.7288 161.071 34.1732 161.116C33.6176 161.16 33.0195 161.34 32.8444 161.514C32.669 161.688 32.4423 161.748 32.341 161.647C32.1571 161.463 31.6377 161.794 30.8045 162.624C30.5623 162.865 30.0511 163.039 29.6682 163.01C29.2851 162.981 28.9576 163.087 28.9397 163.245C28.9223 163.403 28.5879 163.442 28.1967 163.332C27.8059 163.223 27.3915 163.227 27.2762 163.343C27.1606 163.459 26.8065 163.497 26.4887 163.429C25.744 163.269 25.3097 163.704 25.7633 164.157C25.9569 164.35 26.1968 164.426 26.2965 164.326C26.3963 164.226 26.5736 164.239 26.6904 164.356C26.8072 164.472 26.5843 164.645 26.1948 164.741C25.6702 164.869 25.4591 164.788 25.3807 164.429C25.3224 164.162 25.1925 164.004 25.0921 164.078C24.9919 164.152 24.5658 164.49 24.1453 164.83C23.3168 165.5 22.4807 165.599 21.9698 165.09C21.7921 164.913 21.5621 164.852 21.4589 164.956C21.3556 165.06 20.8769 165.178 20.3952 165.219C19.9131 165.261 19.3733 165.394 19.1953 165.516C19.0173 165.637 18.6825 165.671 18.4516 165.59C18.2204 165.509 17.9652 165.64 17.8842 165.88C17.7928 166.152 17.4784 166.228 17.0512 166.08C16.674 165.95 16.2307 165.978 16.066 166.143C15.8979 166.312 15.4597 166.237 15.0664 165.973C14.6813 165.715 14.2395 165.63 14.0848 165.785C13.8345 166.036 13.7943 165.998 13.7234 165.444C13.6794 165.101 13.7309 164.733 13.8379 164.625C13.9448 164.518 13.9238 164.323 13.7915 164.191C13.6548 164.054 13.9437 163.872 14.4617 163.768C15.116 163.636 15.4015 163.423 15.4763 163.013C15.5331 162.699 15.7083 162.458 15.8651 162.478C16.0219 162.497 16.0709 162.288 15.9737 162.013C15.8204 161.58 15.8562 161.546 16.2442 161.756C16.6191 161.959 17.0902 161.56 19.1569 159.29C20.5127 157.801 21.6407 156.379 21.6632 156.13C21.6896 155.838 21.8759 155.735 22.1856 155.84C22.5694 155.97 22.6049 155.94 22.3602 155.692C22.1912 155.52 22.0217 155.137 21.9837 154.839C21.927 154.396 22.0584 154.302 22.7149 154.315C23.3586 154.328 23.6293 154.141 24.0989 153.356C24.4203 152.819 24.7398 152.315 24.8091 152.234C24.8784 152.153 24.7764 151.929 24.5829 151.736C24.3894 151.543 24.3152 151.301 24.4181 151.198C24.5211 151.095 24.8105 151.121 25.0613 151.256C25.6031 151.548 25.9739 151.253 25.8899 150.596C25.8195 150.046 24.784 149.793 24.4622 150.248C24.0167 150.878 23.7081 150.912 23.2413 150.385C22.0927 149.086 21.6695 148.816 21.5127 149.283C21.397 149.627 21.293 149.614 21.0839 149.229C20.9191 148.926 20.7173 148.809 20.5835 148.939C20.4602 149.06 20.1119 149.279 19.81 149.426C19.4059 149.623 19.3609 149.795 19.6395 150.072C20.0718 150.503 19.8836 150.792 19.0726 150.942C18.6297 151.024 18.59 151.161 18.8827 151.601C19.0861 151.907 19.1577 152.252 19.0419 152.369C18.9142 152.497 18.6926 152.351 18.4784 151.998C18.2005 151.541 18.0932 151.513 17.9733 151.87C17.8897 152.119 17.6274 152.254 17.3905 152.172C17.1537 152.089 16.6456 152.3 16.2613 152.642C15.7093 153.132 15.6497 153.349 15.9774 153.675C16.5431 154.239 16.0244 154.681 15.3323 154.223C14.8274 153.89 14.6602 153.989 13.5528 155.275C12.7223 156.24 12.0724 156.747 11.525 156.857C10.8404 156.995 10.6952 157.141 10.5602 157.827C10.4729 158.271 10.3202 158.554 10.2213 158.455C10.1223 158.357 9.84298 158.568 9.60051 158.925C9.35806 159.281 9.29479 159.708 9.45992 159.872C9.90886 160.32 9.57085 160.979 9.03915 160.692C8.38789 160.341 8.30536 160.226 8.67603 160.183C8.86441 160.162 8.79169 160.035 8.50089 159.878C8.10216 159.663 8.0346 159.702 8.16022 160.078C8.2885 160.462 8.22035 160.516 7.78379 160.378C7.34166 160.238 7.27799 160.29 7.41021 160.685C7.5176 161.006 7.44833 161.119 7.19727 161.031C6.99227 160.96 6.5718 161.173 6.26303 161.505C5.95403 161.838 5.59443 162.167 5.46395 162.236C4.97161 162.498 4.98402 162.739 5.49535 162.849C5.92001 162.941 5.93739 163.051 5.5834 163.406C5.30412 163.686 4.94755 163.72 4.61315 163.499C3.88558 163.019 3.61672 163.393 4.16215 164.128L4.61119 164.733L4.05877 164.231C3.30794 163.55 2.35356 164.394 3.06873 165.107C3.32675 165.364 3.46386 165.649 3.37355 165.74C3.28306 165.83 3.05578 165.674 2.86849 165.393C2.45593 164.772 1.47625 164.691 1.13702 165.25C1.0013 165.473 1.04606 165.971 1.23623 166.357C1.42639 166.743 1.48765 167.13 1.3722 167.218C0.841992 167.621 0.851864 167.899 1.42346 168.679C1.91002 169.342 2.20926 169.518 2.8703 169.532C3.61875 169.547 3.75725 169.646 4.22751 170.501C4.69191 171.346 4.85343 171.467 5.65488 171.567C6.15188 171.629 6.7483 171.914 6.98008 172.202C7.29471 172.591 7.36304 172.6 7.25007 172.239C7.14437 171.901 7.21432 171.795 7.48232 171.889C7.69335 171.963 8.01563 171.873 8.19861 171.69C8.58089 171.306 9.19561 171.578 10.1918 172.571C10.5758 172.954 10.9037 173.147 10.92 172.999C10.9534 172.699 12.3497 172.909 12.7099 173.268C12.8375 173.395 13.0531 173.388 13.1887 173.252C13.3536 173.086 13.6001 173.225 13.9295 173.668C14.3079 174.176 14.7171 174.342 15.6773 174.378C18.0345 174.464 19.2589 174.683 19.3849 175.039C19.5553 175.521 21.1818 176.024 21.5089 175.696C21.6674 175.537 21.8689 175.613 22.0185 175.888C22.1829 176.191 22.3815 176.233 22.6102 176.013C23.1554 175.49 24.1577 175.613 24.8335 176.287C25.3974 176.849 25.4611 176.845 25.5248 176.246C25.5866 175.665 25.736 175.614 26.7587 175.825C27.3984 175.957 28.3847 176.287 28.9497 176.559C30.1024 177.113 30.4271 176.989 30.0852 176.127C29.75 175.282 30.3859 175.483 31.4099 176.546C32.0891 177.251 32.3259 177.375 32.4262 177.077C32.5075 176.835 32.783 176.839 33.1572 177.086C33.4878 177.304 33.8632 177.377 33.9917 177.248C34.143 177.096 34.0038 176.863 33.5978 176.588L32.9701 176.162L33.9093 176.331C35.1898 176.561 36.0252 177.1 36.0002 177.678C35.9851 178.024 36.0555 178.015 36.263 177.644C36.4662 177.28 36.6113 177.256 36.7751 177.558C36.901 177.79 37.1006 177.882 37.2189 177.764C37.3371 177.645 38.1791 177.656 39.09 177.787C40.0006 177.919 40.8322 177.904 40.938 177.754C41.6383 176.763 42.0001 176.717 42.8011 177.515C43.4729 178.185 43.6368 178.238 43.83 177.846C43.9867 177.529 44.3555 177.477 44.9878 177.682C45.4981 177.847 45.9287 178.086 45.9451 178.212C45.9821 178.502 47.2768 178.671 48.23 178.512C48.9494 178.391 49.1081 178.333 49.5124 178.04C49.6283 177.956 49.9342 178.098 50.1922 178.355C50.4591 178.621 50.7823 178.701 50.9418 178.541C51.096 178.387 51.6773 178.435 52.2335 178.65C53.4672 179.126 53.8189 178.861 53.1889 177.929C52.929 177.545 52.8426 177.104 52.997 176.949C53.195 176.75 53.3819 176.839 53.6308 177.249C53.8937 177.682 54.0177 177.728 54.1177 177.431C54.3358 176.782 53.5921 175.913 52.8841 175.991C52.5385 176.029 52.1049 175.909 51.9211 175.726C51.7369 175.543 51.6021 175.514 51.621 175.662C51.6591 175.961 49.0272 175.354 48.6275 174.971C48.3701 174.725 46.3626 175.16 45.9781 175.545C45.8621 175.662 45.9383 175.928 46.1475 176.136C46.4592 176.447 46.4263 176.512 45.9642 176.497C45.6539 176.487 45.2271 176.309 45.0158 176.101C44.6869 175.778 44.6567 175.798 44.8074 176.237C44.9043 176.519 44.8386 176.732 44.6613 176.71C44.2609 176.66 44.3313 175.753 44.7391 175.706C45.0142 175.675 44.8941 174.905 44.5603 174.559C44.4799 174.476 44.1966 174.517 43.9304 174.649C43.6641 174.782 43.1938 174.754 42.8853 174.587C42.0135 174.116 40.7879 174.159 40.4539 174.672C40.2201 175.031 40.0732 175.019 39.8077 174.62C39.6189 174.337 39.5383 174.03 39.6288 173.939C39.7191 173.849 39.3859 173.642 38.8885 173.481C38.3287 173.299 38.0349 173.332 38.1179 173.566C38.3633 174.26 37.3912 174.255 36.5785 173.558C35.8546 172.937 35.7103 172.93 35.0269 173.484C34.3312 174.047 34.2516 174.041 33.9862 173.401C33.7383 172.804 33.6765 172.774 33.5399 173.18C33.4186 173.541 33.302 173.533 33.0453 173.147C32.6317 172.525 31.6366 172.397 31.4533 172.942C31.3651 173.204 31.0464 173.197 30.5395 172.922C29.5625 172.392 29.325 171.825 30.0902 171.85C30.4011 171.86 30.9282 171.625 31.2617 171.327C32.2453 170.45 32.3803 170.391 32.6899 170.699C32.9728 170.981 34.7274 170.411 35.2789 169.858C35.425 169.712 35.7641 169.678 36.0319 169.783C36.3146 169.894 36.9229 169.651 37.4796 169.204C38.0075 168.78 38.5528 168.447 38.6913 168.464C38.8296 168.481 38.9861 168.258 39.0388 167.967C39.12 167.521 39.2116 167.541 39.6259 168.098C39.9221 168.496 40.2016 168.673 40.3302 168.544C40.4475 168.427 40.3875 168.276 40.1968 168.209C39.2793 167.888 40.4666 167.647 42.2706 167.788C42.8002 167.829 44.6075 167.041 44.9631 166.613C45.7764 165.636 46.4896 165.234 46.8222 165.565C47.02 165.762 47.3899 165.845 47.6444 165.75C47.899 165.655 48.3623 165.586 48.674 165.598C48.9855 165.609 49.5195 165.407 49.8604 165.148C50.2014 164.89 50.9441 164.594 51.5107 164.492C52.0773 164.389 52.6327 164.086 52.7447 163.818C52.8578 163.546 53.059 163.441 53.1986 163.58C53.3362 163.717 53.6528 163.625 53.9022 163.375C54.1516 163.125 54.4675 163.031 54.604 163.168C54.7405 163.304 54.8688 163.267 54.8891 163.087C54.9093 162.906 55.38 162.738 55.9351 162.713C56.4904 162.689 57.0339 162.579 57.1431 162.469C57.2524 162.36 57.4474 162.375 57.5764 162.504C57.7054 162.632 57.9987 162.549 58.2281 162.319C58.4575 162.089 58.8168 161.917 59.0267 161.937C59.2364 161.956 60.3681 161.549 61.542 161.032C63.2338 160.286 63.6733 159.977 63.6635 159.541C63.6536 159.102 63.6849 159.083 63.8177 159.446C64.0146 159.985 65.4213 160.198 65.6123 159.717C65.682 159.542 66.2338 159.342 66.8384 159.273C67.4434 159.204 68.1643 158.92 68.4408 158.643C68.7172 158.365 69.1905 158.204 69.4922 158.283C69.794 158.362 70.243 158.302 70.4901 158.15C70.7372 157.997 71.1211 157.809 71.3432 157.731C72.7056 157.254 73.4067 156.843 73.6298 156.391C73.7895 156.067 74.1125 155.94 74.5036 156.048C74.8464 156.142 75.3945 155.966 75.7291 155.654C76.0618 155.344 76.435 155.19 76.5582 155.313C76.6813 155.436 76.8394 155.366 76.909 155.159C76.979 154.951 77.4294 154.816 77.91 154.86C78.536 154.916 78.8923 154.754 79.1652 154.29C79.4193 153.858 79.6838 153.717 79.9599 153.866C80.1878 153.988 81.1461 153.664 82.0897 153.145C83.0331 152.626 84.1474 152.17 84.5658 152.133C84.9842 152.096 85.3403 151.94 85.3574 151.787C85.3743 151.635 85.8021 151.419 86.3081 151.308C87.2088 151.111 88.2388 150.067 88.5459 149.038C88.6634 148.646 88.8124 148.669 89.3035 149.159C89.6908 149.545 90.0148 149.668 90.1871 149.496C90.3367 149.346 90.5475 149.311 90.6556 149.419C90.7638 149.527 91.1616 149.333 91.5399 148.989C91.9182 148.644 92.4496 148.37 92.7215 148.379C93.2869 148.397 94.4333 147.692 95.1683 146.873C95.4446 146.565 95.8506 146.377 96.0704 146.453C96.2905 146.531 96.9549 146.201 97.5468 145.721C99.1151 144.45 99.3455 144.208 99.6149 143.549C99.8065 143.081 99.9769 143.033 100.414 143.322C100.984 143.698 101.001 143.688 103.491 141.541C104.498 140.672 105.071 140.342 105.483 140.394C105.642 140.414 106.15 140.051 106.613 139.587C107.075 139.124 107.63 138.766 107.846 138.792C108.169 138.831 109.417 137.774 110.884 136.217C111.03 136.063 111.63 135.682 112.217 135.37C113.805 134.528 114.906 133.575 114.893 133.055C114.887 132.797 115.105 132.536 115.389 132.462C116.069 132.283 119.577 128.925 119.336 128.684C119.231 128.58 119.52 128.413 119.976 128.313C120.49 128.2 121.232 127.66 121.921 126.896C123.072 125.617 123.359 124.916 122.807 124.723C122.632 124.661 122.678 124.547 122.91 124.468C123.142 124.389 123.438 124.432 123.569 124.562C123.707 124.699 123.799 124.561 123.788 124.236C123.771 123.778 123.833 123.737 124.116 124.019C124.402 124.304 124.713 124.086 125.86 122.8C126.629 121.939 127.246 121.145 127.232 121.037C127.218 120.928 127.422 120.79 127.686 120.73C127.949 120.67 128.386 120.265 128.657 119.829ZM58.4242 178.673C58.4911 178.491 58.2024 178.017 57.7824 177.622C57.2689 177.138 57.1432 177.085 57.3984 177.46C57.6075 177.766 57.8284 178.235 57.8896 178.503C58.0196 179.07 58.2511 179.144 58.4242 178.673ZM107.987 127.888C107.858 127.759 107.839 127.567 107.944 127.462C108.05 127.356 108.192 127.425 108.259 127.615C108.326 127.806 108.345 127.997 108.301 128.042C108.257 128.086 108.116 128.017 107.987 127.888ZM56.3907 178.369C55.9315 177.911 55.0653 177.689 54.7951 177.96C54.7095 178.046 54.835 178.184 55.0745 178.266C55.3136 178.348 55.6609 178.563 55.8461 178.742C56.3621 179.242 56.8981 178.874 56.3907 178.369ZM138.873 94.7465C138.856 94.6085 139.004 94.4431 139.202 94.3795C139.422 94.309 139.434 94.4075 139.234 94.6306C139.053 94.8324 138.891 94.8846 138.873 94.7465ZM56.0741 177.146C56.0067 176.956 55.8243 176.928 55.6689 177.083C55.5134 177.239 55.4917 177.472 55.6207 177.601C55.7497 177.73 55.9319 177.758 56.0259 177.664C56.1198 177.569 56.1414 177.337 56.0741 177.146ZM140.862 90.6617C140.741 90.5405 140.723 90.3598 140.823 90.2597C140.923 90.1597 141.169 90.242 141.37 90.4424C141.571 90.6428 141.589 90.8238 141.409 90.8443C141.23 90.8649 140.984 90.7828 140.862 90.6617ZM150.021 81.2951C149.964 81.2383 149.934 81.0451 149.954 80.8655C149.974 80.686 150.103 80.6507 150.239 80.7868C150.376 80.9229 150.406 81.1163 150.306 81.2163C150.206 81.3164 150.078 81.3519 150.021 81.2951ZM148.145 78.5761C148.033 78.3648 148.207 78.4552 148.529 78.7767C148.852 79.0982 148.942 79.2709 148.731 79.1607C148.519 79.0504 148.255 78.7873 148.145 78.5761ZM148.442 74.6424C148.313 74.5138 148.352 74.2669 148.528 74.0938C148.802 73.8247 148.843 73.8518 148.804 74.2786C148.748 74.9072 148.728 74.9277 148.442 74.6424ZM64.3807 155.551C64.2941 154.875 64.8196 155.062 64.9353 155.749C64.9898 156.073 64.9007 156.264 64.7368 156.172C64.5729 156.082 64.4128 155.802 64.3807 155.551ZM150.389 69.8741C150.199 69.8074 150.129 69.6659 150.235 69.5601C150.34 69.4542 150.532 69.4726 150.661 69.6013C150.79 69.7299 150.86 69.8711 150.816 69.9153C150.772 69.9595 150.58 69.9409 150.389 69.8741ZM41.9066 175.173C41.7131 174.98 41.6364 174.74 41.7361 174.64C41.8359 174.54 42.0758 174.616 42.2693 174.809C42.4628 175.002 42.5395 175.241 42.4398 175.341C42.3401 175.442 42.1001 175.366 41.9066 175.173ZM27.1794 172.822C27.0504 172.694 26.9807 172.553 27.0248 172.508C27.0689 172.464 27.2608 172.483 27.4514 172.55C27.6421 172.616 27.7115 172.758 27.606 172.864C27.5005 172.969 27.3084 172.951 27.1794 172.822ZM16.2409 160.104C16.0474 159.911 15.9707 159.671 16.0704 159.571C16.1702 159.471 16.4101 159.547 16.6036 159.74C16.7971 159.933 16.8738 160.173 16.7741 160.273C16.6744 160.373 16.4344 160.297 16.2409 160.104ZM153.973 21.037C153.916 20.9802 153.886 20.787 153.906 20.6074C153.926 20.4279 154.054 20.3926 154.191 20.5287C154.327 20.6647 154.357 20.8581 154.258 20.9582C154.158 21.0582 154.03 21.0938 153.973 21.037ZM14.4492 160.494C14.2556 160.301 14.1789 160.061 14.2787 159.961C14.3784 159.861 14.2841 159.604 14.069 159.39C13.8541 159.175 13.7943 159.014 13.9361 159.032C14.3104 159.079 15.1889 160.456 14.9789 160.666C14.881 160.764 14.6427 160.687 14.4492 160.494ZM19.9207 152.906C19.9939 152.25 20.4673 152.26 20.5823 152.92C20.6433 153.269 20.5321 153.449 20.2727 153.421C20.0071 153.392 19.8863 153.215 19.9207 152.906ZM18.6907 154.892C18.1327 154.772 17.512 153.903 17.7871 153.627C17.8761 153.538 18.1074 153.623 18.3009 153.816C18.4944 154.009 18.7851 154.034 18.9469 153.871C19.1879 153.63 19.264 153.68 19.3673 154.153C19.5235 154.869 19.3689 155.037 18.6907 154.892ZM6.65185 166.548C6.60116 166.139 6.64881 166.145 6.88476 166.577C7.04784 166.876 7.07666 167.108 6.94856 167.092C6.82069 167.076 6.68707 166.831 6.65185 166.548ZM21.5652 150.893C21.0166 150.337 21.0107 150.277 21.5238 150.469C21.8527 150.593 22.1762 150.849 22.2432 151.038C22.4481 151.617 22.2342 151.571 21.5652 150.893ZM15.215 156.18C14.9495 155.915 14.8789 155.681 15.0583 155.661C15.2378 155.64 15.5367 155.775 15.7227 155.96C15.9087 156.146 15.979 156.379 15.8793 156.479C15.7796 156.579 15.4805 156.444 15.215 156.18ZM10.706 160.027C10.5125 159.834 10.474 159.556 10.6206 159.409C10.7827 159.246 10.9834 159.32 11.1343 159.597C11.2704 159.847 11.3088 160.126 11.2198 160.215C11.1307 160.304 10.8995 160.219 10.706 160.027ZM153.703 14.232C153.633 13.9095 153.661 13.6563 153.765 13.6691C154.054 13.7053 154.243 14.4052 154.024 14.625C153.904 14.7458 153.783 14.5977 153.703 14.232ZM150.21 14.0215C150.153 13.9647 150.123 13.7716 150.143 13.592C150.163 13.4124 150.291 13.3771 150.428 13.5132C150.564 13.6493 150.595 13.8427 150.495 13.9428C150.395 14.0428 150.267 14.0784 150.21 14.0215Z" fill="#280FC7"/>
</svg>
