<svg width="330" height="287" viewBox="0 0 330 287" fill="none" xmlns="http://www.w3.org/2000/svg">
<path fill-rule="evenodd" clip-rule="evenodd" d="M137.513 2.50966C137.04 3.95782 136.656 4.11219 136.203 3.03305C135.317 0.924765 131.39 6.47924 130.761 10.7282C130.403 13.1496 130.362 12.5351 130.598 8.29201L130.914 2.61698L128.666 3.74611C125.379 5.39863 124.426 5.57653 123.861 4.64294C123.131 3.43883 119.854 4.44005 119.159 6.07934C118.771 6.99381 118.49 6.8218 118.341 5.57505C118.16 4.05044 117.782 4.02839 116.428 5.46038C115.277 6.67625 114.439 6.7821 113.794 5.79412C113.073 4.68705 112.602 5.05166 111.806 7.33196C110.939 9.81809 110.397 10.143 108.588 9.26676C107.392 8.68603 106.183 8.43168 105.901 8.70073C105.618 8.96831 104.118 9.39173 102.567 9.6402C98.0824 10.3591 97.9501 10.415 97.9501 11.5985C97.9501 12.2175 97.2227 12.416 96.3333 12.0425C94.8878 11.4339 94.7468 11.6956 95.0027 14.5022C95.1951 16.6105 95.052 17.6426 94.5677 17.6426C94.1712 17.6426 93.8465 16.6502 93.8465 15.4373C93.8465 13.967 93.3336 13.2319 92.3077 13.2319C91.4188 13.2319 90.7689 14.0082 90.7689 15.0697C90.7684 16.2047 89.9744 16.9825 88.691 17.1045C86.3269 17.328 85.5785 18.6438 86.6803 20.6403C87.1912 21.5666 87.2281 22.015 86.7936 22.0312C86.4412 22.0429 86.1525 23.0456 86.1525 24.2585C86.1525 25.4715 85.8062 26.4639 85.3831 26.4639C84.9599 26.4639 84.6136 25.4715 84.6136 24.2585C84.6136 23.0456 84.8445 22.0532 85.1266 22.0532C85.4087 22.0532 85.6395 21.3916 85.6395 20.583C85.6395 18.3659 84.25 18.8187 83.9397 21.1358C83.7745 22.3678 83.1892 22.8971 82.4439 22.4884C81.3124 21.8694 81.2354 22.2105 81.4298 26.9814C81.6299 31.8904 82.8994 35.3278 83.5467 32.7123C83.7104 32.0522 84.4793 31.395 85.2548 31.2538C86.0304 31.1127 86.9542 30.9216 87.3066 30.8289C87.6595 30.7363 88.4668 31.1171 89.1019 31.6743C89.9636 32.4315 90.256 32.0948 90.256 30.3467C90.256 28.4428 90.5006 28.2737 91.5717 29.4411C93.5516 31.5979 95.3854 31.2274 95.3854 28.6692C95.3854 27.2975 95.8696 26.4639 96.6677 26.4639C97.4171 26.4639 97.9501 27.3092 97.9501 28.4957C97.9501 31.2803 102.008 31.4567 102.378 28.6883C102.526 27.5856 103.264 26.7182 104.017 26.7594C106.627 26.9035 107.183 26.4536 107.183 24.1939C107.183 22.9456 107.472 22.0312 107.824 22.1635C108.177 22.2943 108.993 22.3237 109.637 22.2267C110.641 22.0782 110.731 21.6357 110.267 19.1466C109.824 16.7737 109.868 16.3973 110.505 17.0971C110.935 17.5705 111.286 18.879 111.286 20.0052C111.286 21.1314 111.608 22.0532 112.001 22.0532C112.394 22.0532 112.847 23.0353 113.008 24.235C113.437 27.4401 119.623 26.5888 121.032 23.1309C122.116 20.4713 123.35 19.6318 122.864 21.8856C122.71 22.6016 123.163 23.5043 123.872 23.8939C124.58 24.2821 125.286 24.016 125.44 23.3029C125.594 22.5884 125.934 22.3855 126.197 22.8515C126.46 23.3161 126.675 22.9956 126.675 22.14C126.675 21.2843 127.15 20.583 127.731 20.583C128.311 20.583 128.644 21.2446 128.47 22.0532C128.275 22.9574 129.003 23.4382 130.363 23.3029C131.837 23.1559 132.113 22.881 131.191 22.4781C130.206 22.0473 129.895 21.2299 130.108 19.6347C130.273 18.4041 130.549 17.9484 130.721 18.6217C131.206 20.5198 133.247 23.5234 134.052 23.5234C134.449 23.5234 135.837 20.6462 137.136 17.128C138.753 12.7497 139.498 11.4912 139.498 13.1364C139.498 14.4566 138.802 16.7178 137.95 18.1586C136.208 21.1093 136.355 23.5234 138.276 23.5234C139.096 23.5234 139.43 22.9265 139.202 21.868C138.946 20.6815 139.104 20.6271 139.757 21.6754C140.912 23.5278 142.576 22.3473 142.576 19.6759C142.576 18.5585 142.807 17.6426 143.089 17.6426C143.371 17.6426 143.602 18.5247 143.602 19.6024C143.602 22.6781 149.643 22.3267 149.933 19.2348C150.112 17.3162 150.161 17.3588 150.21 19.4803C150.279 22.4443 151.32 22.8648 152.219 20.289C152.686 18.9511 152.835 18.9437 152.835 20.2581C152.835 22.1811 161.843 22.0973 162.921 20.1655C163.25 19.5759 163.636 19.9258 163.78 20.9417C163.98 22.3517 164.163 22.284 164.559 20.6536C164.844 19.4789 164.965 17.9984 164.828 17.3618C164.691 16.7266 164.937 16.6002 165.375 17.081C165.813 17.5632 166.171 18.7364 166.171 19.6906C166.171 21.5857 167.151 22.0179 171.044 21.8415C172.454 21.7768 175.455 21.8753 177.712 22.0591C184.901 22.6457 185.345 22.5766 185.547 20.8418C185.684 19.6612 185.98 19.8111 186.51 21.3313C187.475 24.0983 190.651 24.1556 192.914 21.446C194.408 19.6568 194.786 19.6568 195.639 21.446C196.851 23.9866 197.909 24.2203 197.05 21.7592C196.212 19.3583 196.276 17.6426 197.204 17.6426C197.627 17.6426 197.973 18.635 197.973 19.8479C197.973 21.0608 198.377 22.1076 198.871 22.1723C199.364 22.2385 200.461 22.4487 201.307 22.6398C202.154 22.831 203.016 22.2811 203.223 21.4181C203.475 20.3684 203.602 20.4566 203.608 21.6857C203.612 22.6972 204.135 23.5131 204.77 23.5014C205.572 23.4852 205.721 23.1103 205.258 22.2679C204.723 21.2961 204.741 20.705 205.351 19.2554C205.968 17.7867 206.211 18.0042 206.665 20.433C206.998 22.2164 207.53 23.075 207.99 22.5693C208.412 22.1047 209.043 22.3958 209.393 23.2162C210.426 25.6435 212.117 25.8728 213.026 23.7102C213.577 22.4002 213.874 22.2708 213.874 23.3441C213.874 25.0951 215.532 25.6332 216.081 24.0601C216.819 21.9444 220.497 22.0826 220.919 24.2424C221.365 26.5286 223.562 27.1607 226.844 25.9478C227.912 25.5523 229.471 25.792 230.307 26.4786C231.143 27.1666 231.827 27.196 231.827 26.5447C231.827 25.8934 232.404 25.3612 233.109 25.3612C233.815 25.3612 234.392 26.1933 234.392 27.2107C234.392 29.4205 236.324 31.17 236.556 29.1705C236.645 28.4046 237.58 27.221 238.633 26.5403C240.351 25.4303 240.547 25.6067 240.547 28.2531C240.547 30.8627 240.768 31.0833 242.471 30.1717C243.529 29.6057 244.215 29.6586 243.997 30.2894C243.422 31.9507 246.835 35.0029 247.554 33.4709C247.903 32.7285 248.288 32.8417 248.482 33.7429C248.665 34.5912 249.686 35.2852 250.75 35.2852C251.815 35.2852 252.853 35.7615 253.056 36.3437C253.631 37.9904 258.679 38.0242 259.398 36.3878C259.858 35.3366 260.039 35.6174 260.039 37.3831C260.039 39.3488 260.527 39.8222 262.475 39.7443C263.815 39.6899 265.687 40.0736 266.636 40.597C267.75 41.2116 268.494 40.922 268.741 39.7781C269.034 38.4211 269.29 38.4667 269.838 39.9722C270.878 42.8259 273.215 45.5443 273.623 44.3755C274.26 42.5465 276.418 43.1993 276.701 45.3076C276.919 46.9381 277.135 47.0042 277.719 45.6164C278.458 43.8565 279.751 44.8386 279.32 46.8322C279.121 47.757 280.569 47.9613 282.48 47.2762C282.833 47.1498 283.139 45.8883 283.162 44.474C283.194 42.4172 283.262 42.3437 283.501 44.1064C283.666 45.3194 284.144 47.0381 284.565 47.9261C284.986 48.8141 285.178 50.2417 284.994 51.0973C284.786 52.0603 285.031 52.3749 285.636 51.9206C286.175 51.5178 287.454 52.3294 288.479 53.7231C289.505 55.1184 291.489 56.2607 292.888 56.2607C294.287 56.2607 295.432 56.8341 295.432 57.5339C295.432 58.2352 295.778 58.8086 296.201 58.8086C296.624 58.8086 296.97 58.0764 296.97 57.1811C296.97 56.2857 297.317 55.9343 297.74 56.4004C298.163 56.865 298.509 56.6047 298.509 55.8226C298.509 53.4835 299.913 54.2112 300.25 56.7238C300.71 60.1612 300.676 60.2788 299.242 60.2788C297.989 60.2788 297.967 60.4052 298.816 62.8384C299.452 64.6615 299.769 64.8776 299.92 63.5883C300.063 62.3577 300.67 62.959 301.817 65.4672C302.884 67.8004 303.831 68.7958 304.393 68.1783C304.918 67.6005 305.462 68.0386 305.725 69.253C305.969 70.3821 306.581 71.3069 307.084 71.3069C307.587 71.3084 308.027 72.1361 308.063 73.1447C308.098 74.1547 308.156 75.5367 308.191 76.2145C308.37 79.6621 312.871 82.4026 312.871 79.0637C312.871 78.0758 313.231 78.7388 313.671 80.5369C314.11 82.3364 314.344 84.3933 314.189 85.1078C313.815 86.8427 314.853 89.0539 316.605 90.2535C317.454 90.8358 318.594 93.5704 319.426 97.0165C320.194 100.2 321.106 102.828 321.453 102.859C321.801 102.89 322.242 104.712 322.435 106.91C322.627 109.106 323.21 112.211 323.729 113.811C324.371 115.785 324.554 117.689 324.299 119.742C324.092 121.403 323.973 125.37 324.035 128.554C324.097 131.74 323.803 135.851 323.382 137.691C322.962 139.532 322.617 142.052 322.617 143.294C322.617 144.535 322.386 145.385 322.103 145.184C321.821 144.981 321.298 146.47 320.941 148.492C320.583 150.513 319.776 152.82 319.146 153.618C318.516 154.417 318.001 156.203 318.001 157.588C318.001 158.974 317.675 160.636 317.276 161.283C316.877 161.929 316.473 164.444 316.378 166.869C316.253 170.082 315.925 171.321 315.173 171.43C313.817 171.627 311.393 175.322 309.806 179.609C309.107 181.497 308.475 182.895 308.401 182.714C308.021 181.794 303.256 187.932 302.236 190.656C301.879 191.609 301.587 193.174 301.587 194.135C301.587 195.134 301.165 195.565 300.6 195.142C300.058 194.736 298.898 195.65 298.023 197.176C297.148 198.701 296.1 199.949 295.694 199.949C295.287 199.949 294.1 202.099 293.057 204.724C292.013 207.352 290.736 209.294 290.218 209.042C289.555 208.721 289.276 209.491 289.276 211.646C289.276 214.228 289.062 214.553 287.91 213.724C286.778 212.911 286.599 213.159 286.868 215.166C287.085 216.788 286.924 217.592 286.384 217.592C285.877 217.592 285.686 216.771 285.871 215.386C286.072 213.887 285.844 213.181 285.157 213.181C284.601 213.181 284.147 213.732 284.147 214.406C284.147 215.081 283.859 215.744 283.506 215.882C277.868 218.086 275.027 221.197 274.816 225.399C274.673 228.252 274.583 228.339 273.91 226.263C273.147 223.912 273.122 223.92 268.672 227.811C267.637 228.717 265.925 229.775 264.868 230.162C263.811 230.55 262.681 231.5 262.356 232.272C262.032 233.044 260.397 234.11 258.723 234.64C257.034 235.176 254.6 237.253 253.256 239.308C251.31 242.281 250.685 242.659 250.083 241.225C249.534 239.921 249.057 239.864 248.308 241.014C247.744 241.878 246.495 242.585 245.532 242.585C244.57 242.585 243.067 243.609 242.192 244.86C241.212 246.261 238.593 247.412 235.375 247.856C232.5 248.253 229.749 249.19 229.262 249.938C228.775 250.685 226.786 251.404 224.844 251.536C222.901 251.668 220.383 252.661 219.248 253.743C218.113 254.824 215.689 255.828 213.862 255.975C211.536 256.163 210.179 257.048 209.335 258.93C208.288 261.263 208.033 261.34 207.394 259.508C206.859 257.973 206.319 257.768 205.41 258.758C204.724 259.506 203.289 260.066 202.222 260.003C201.154 259.94 200.051 260.031 199.768 260.206C199.486 260.382 198.529 260.413 197.64 260.277C196.752 260.14 195.873 260.735 195.686 261.598C195.5 262.461 194.813 263.168 194.158 263.168C193.504 263.168 192.687 264.142 192.343 265.333C191.826 267.117 191.598 267.159 191.044 265.571C190.211 263.182 184.334 263.777 183.249 266.36C182.667 267.744 182.416 267.704 182.086 266.172C181.771 264.712 180.226 264.283 175.965 264.471C169.734 264.746 167.718 266.122 167.694 270.115C167.679 272.532 167.637 272.522 167.121 269.976C166.671 267.751 166.478 267.611 166.111 269.24C165.755 270.821 165.596 270.609 165.37 268.252C165.174 266.215 164.597 265.144 163.574 264.921C162.746 264.74 162.067 265.177 162.067 265.893C162.067 266.609 161.375 266.962 160.529 266.679C159.682 266.397 158.99 266.766 158.99 267.5C158.99 269.407 157.418 270.133 155.87 268.943C154.873 268.177 154.395 268.611 153.942 270.693C153.61 272.215 152.948 273.46 152.471 273.46C151.796 273.46 151.74 273.067 152.219 271.696C153.524 267.955 152.813 266.845 149.235 267.031C147.256 267.132 145.516 266.662 145.37 265.982C144.98 264.174 142.66 267.592 142.402 270.356C142.225 272.265 142.17 272.2 142.122 270.023C142.069 267.61 141.637 267.362 138.088 267.716C135.901 267.933 133.601 268.629 132.976 269.26C132.307 269.936 131.706 269.784 131.514 268.893C131.334 268.06 130.835 267.766 130.405 268.239C129.974 268.713 129.363 268.523 129.046 267.817C127.382 264.112 125.182 265.418 124.49 270.52C124.253 272.272 124.183 272.191 124.15 270.128C124.122 268.289 123.699 267.55 122.699 267.594C121.924 267.626 120.719 267.472 120.022 267.248C118.627 266.803 117.858 271.472 118.996 273.486C119.342 274.1 119.466 275.337 119.272 276.236C118.764 278.595 117.955 278.246 117.955 275.665C117.955 274.452 117.716 273.46 117.424 273.46C117.072 273.46 117.088 272.415 117.47 270.368C118.026 267.389 117.952 267.297 115.436 267.795C113.477 268.185 112.825 267.81 112.825 266.297C112.825 264.67 112.676 264.633 112.056 266.109C111.589 267.219 111.286 267.337 111.286 266.407C111.286 265.511 109.957 264.868 108.081 264.858C106.318 264.847 102.298 264.618 99.1488 264.349C95.9994 264.081 93.5295 264.359 93.6609 264.968C93.9789 266.441 92.3508 264.674 90.8469 261.911C89.9733 260.309 89.4096 260.118 88.7951 261.216C88.3227 262.061 87.4938 262.223 86.9219 261.584C85.4108 259.891 81.5658 260.016 79.2852 261.832C77.7823 263.027 77.1971 262.985 76.9108 261.659C76.6949 260.656 75.233 259.809 73.5193 259.694C71.0238 259.528 70.3103 260.059 69.3537 262.801C67.918 266.916 66.9296 267.191 67.7913 263.235C68.5176 259.902 67.959 257.389 67.0624 259.959C66.1786 262.492 65.3954 262.092 66.1479 259.493C66.4992 258.28 66.7003 257.254 66.5951 257.213C66.4905 257.173 64.945 256.772 63.1615 256.322C60.2537 255.588 59.7828 255.86 58.601 258.968L57.2832 262.433L57.6218 258.39C57.9906 253.985 58.0244 254.037 54.4785 253.606C53.2792 253.459 52.2985 253.944 52.2985 254.684C52.2985 255.423 51.9359 254.988 51.4927 253.716C51.049 252.446 50.2796 251.407 49.7825 251.407C49.2855 251.407 48.7315 250.983 48.551 250.467C48.3709 249.95 47.3512 249.359 46.2858 249.154C41.3652 248.205 38.2245 246.821 37.5956 245.326C37.0878 244.117 36.6964 244.204 36.0855 245.658C35.3869 247.32 35.1592 247.223 34.5985 245.025C34.101 243.075 33.8691 242.906 33.667 244.345C33.4557 245.848 33.3013 245.87 32.9499 244.45C32.7032 243.454 31.9651 242.935 31.3096 243.297C30.6535 243.66 28.8264 242.656 27.2486 241.067C25.6713 239.476 23.9679 238.551 23.4641 239.01C22.9025 239.52 22.545 239.094 22.5403 237.906C22.5342 236.48 22.3983 236.55 22.0233 238.175C21.5878 240.063 21.3857 239.913 20.6209 237.138C20.129 235.356 18.3999 232.453 16.7775 230.686C15.1551 228.92 13.8281 227.038 13.8281 226.504C13.8281 225.971 13.0202 225.803 12.0328 226.134C10.3822 226.687 10.2375 226.422 10.2375 222.861C10.2375 219.713 9.94257 218.819 8.65971 218.084C7.54612 217.446 6.69053 215.403 5.75134 211.138C5.01938 207.813 4.47515 204.87 4.54183 204.594C4.60903 204.317 4.32948 203.325 3.92066 202.388C3.51236 201.452 3.03379 196.888 2.85683 192.25C2.57471 184.831 2.65986 183.593 3.56571 181.971C4.132 180.958 4.59518 178.634 4.59518 176.807C4.59518 174.981 4.81523 173.485 5.08401 173.485C5.35279 173.485 5.95652 171.17 6.42483 168.34C6.89315 165.509 7.5969 163.194 7.98776 163.194C8.37862 163.194 8.69869 162.36 8.69869 161.343C8.69869 160.324 9.16034 158.664 9.72457 157.654C10.2888 156.644 10.7504 154.577 10.7504 153.061C10.7504 151.488 11.2177 149.955 11.8399 149.489C12.716 148.831 12.8648 147.936 12.5996 144.906C12.2775 141.23 12.9376 139.672 13.5716 142.611C13.746 143.419 14.081 144.081 14.3164 144.081C14.954 144.081 15.4254 139.657 14.9966 137.7C14.7914 136.762 14.6893 134.838 14.7709 133.422C14.8519 132.008 14.6596 130.849 14.3431 130.849C14.0266 130.849 13.906 131.492 14.0753 132.277C14.2446 133.062 13.805 134.119 13.0982 134.628C12.3913 135.136 11.6737 136.809 11.5034 138.346C11.3337 139.884 10.9792 141.141 10.7161 141.141C10.4529 141.141 10.2375 141.946 10.2375 142.931C10.2375 143.916 9.62352 146.235 8.8736 148.083C8.12317 149.93 7.25631 152.929 6.94752 154.745C6.63873 156.562 5.64157 159.04 4.73213 160.253C3.82115 161.468 3.0738 163.594 3.06765 164.986C3.06047 166.622 2.78502 167.213 2.28695 166.666C1.39444 165.684 1.3175 167.374 2.01407 172.628C2.42545 175.726 2.33414 176.643 1.48677 177.943C0.923562 178.808 0.604514 180.17 0.777887 180.975C0.951261 181.777 0.798405 183.452 0.438322 184.696C-0.048457 186.378 -0.0720519 187.617 0.347019 189.542C0.692227 191.124 0.732749 192.93 0.452684 194.199C-0.171049 197.023 -0.142838 204.36 0.491668 204.36C0.773784 204.36 1.02307 206.18 1.04513 208.403C1.06719 210.626 1.20209 211.62 1.34417 210.608C1.68015 208.225 2.44597 208.225 2.37313 210.608C2.27823 213.71 4.23099 223.473 4.94654 223.473C5.3174 223.473 5.62106 224.403 5.62106 225.54C5.62106 226.838 5.97909 227.339 6.58179 226.888C7.23938 226.395 7.89697 227.597 8.66843 230.702C9.28754 233.195 10.2406 235.234 10.7853 235.234C11.3306 235.234 11.7763 236.227 11.7763 237.44C11.7763 238.653 12.1226 239.645 12.5457 239.645C12.9689 239.645 13.3151 240.362 13.3151 241.237C13.3151 242.113 13.6039 242.527 13.9563 242.156C14.3092 241.786 14.5426 240.762 14.4754 239.882C14.4082 239.001 14.697 238.659 15.1166 239.12C15.5362 239.582 15.8798 240.806 15.8798 241.84C15.8798 243.675 18.8103 248.466 19.9326 248.466C20.2429 248.466 20.4963 249.028 20.4963 249.713C20.4963 250.398 21.2118 251.017 22.0869 251.089C22.9615 251.16 24.0884 252.286 24.5911 253.59C25.2046 255.181 25.9463 255.642 26.8475 254.994C27.6354 254.428 28.1904 254.646 28.1904 255.52C28.1904 256.341 28.652 256.666 29.2162 256.244C30.374 255.375 30.5617 253.492 29.601 252.38C29.2486 251.973 29.4794 251.586 30.1139 251.523C30.7812 251.455 31.268 252.276 31.268 253.468C31.268 255.923 34.1246 259.424 35.7562 258.968C36.3907 258.792 36.9103 259.262 36.9103 260.015C36.9103 262.289 38.5312 263.333 39.2837 261.544C39.829 260.246 39.988 260.379 39.988 262.136C39.988 263.851 40.7712 264.606 43.1938 265.23C44.9573 265.684 47.0573 265.984 47.8616 265.899C49.1788 265.758 49.2952 265.336 49.0377 261.647C48.8367 258.767 48.9859 257.296 49.5415 256.685C50.7397 255.367 50.8977 255.606 50.5504 258.201C50.3052 260.033 50.4704 260.403 51.2649 259.808C52.5822 258.821 52.5924 260.441 51.2865 263.139C50.3545 265.065 50.3396 265.436 51.0946 267.828C51.6732 269.659 52.1682 270.036 52.7755 269.105C53.2633 268.355 53.9466 268.335 54.3533 269.055C54.7478 269.754 55.2356 270.034 55.4367 269.677C55.6382 269.32 56.4569 269.748 57.2566 270.628C58.0562 271.509 59.8643 272.525 61.2749 272.888C62.6855 273.25 64.2725 273.929 64.8014 274.396C65.4277 274.949 65.6411 274.677 65.4123 273.617C64.886 271.177 65.9257 271.657 66.6608 274.195C67.5625 277.31 68.1996 276.931 68.1996 273.281C68.1996 270.997 68.3719 270.546 68.8408 271.596C69.1937 272.387 70.2324 273.757 71.149 274.641C72.7135 276.149 72.8161 276.036 72.8161 272.82C72.8161 270.63 73.1859 269.115 73.8404 268.624C74.6462 268.02 74.7704 268.339 74.4226 270.121C73.648 274.086 75.5085 277.707 78.3009 277.672C79.6571 277.654 81.7489 278.285 82.9497 279.072C84.2243 279.907 85.2507 279.955 85.4164 279.186C85.5723 278.463 85.4554 277.871 85.1569 277.871C84.8583 277.871 84.6136 277.355 84.6136 276.722C84.6136 274.907 87.5184 272.246 88.194 273.442C88.5941 274.151 88.392 274.854 87.6067 275.487L86.4089 276.452L87.5764 279.266C89.0588 282.838 96.2984 283.363 96.758 279.932C97.1247 277.193 97.9501 277.293 97.9501 280.076C97.9501 281.431 98.4307 282.281 99.198 282.281C100.248 282.281 100.439 281.592 100.403 277.944C100.372 274.774 100.082 273.488 99.3268 273.166C98.4261 272.781 98.3927 272.491 99.0688 270.896C99.7243 269.348 100.033 270.123 101.077 275.942L102.31 282.816L102.601 278.506C102.761 276.134 102.713 272.738 102.495 270.958C102.187 268.449 102.266 267.905 102.845 268.542C103.256 268.993 103.596 270.12 103.6 271.044C103.605 272.05 103.788 271.91 104.056 270.699C104.686 267.848 105.751 270.178 105.374 273.583C105.203 275.133 105.293 276.4 105.575 276.4C105.857 276.4 106.235 277.724 106.414 279.341C106.593 280.958 107.07 282.281 107.474 282.281C107.878 282.281 108.209 282.943 108.209 283.751C108.209 285.711 110.067 285.623 111.385 283.6C112.197 282.355 112.545 282.44 112.883 283.968C113.224 285.513 113.324 285.383 113.331 283.384C113.34 280.317 114.728 280.007 115.862 282.818C116.308 283.921 117.538 285.203 118.596 285.666C120.096 286.321 120.519 286.02 120.519 284.295C120.519 282.077 121.766 282.469 123.57 285.253C123.978 285.883 124.836 285.829 125.475 285.131C126.174 284.37 126.76 284.429 126.943 285.278C127.391 287.352 130.656 287.004 130.908 284.854C131.064 283.528 131.325 283.449 131.849 284.569C132.247 285.425 133.899 286.289 135.52 286.492C138.127 286.817 138.611 286.415 139.712 283.009L140.957 279.159L141.125 282.558C141.283 285.751 141.495 285.938 144.628 285.638C146.461 285.463 148.192 285.251 148.475 285.166C148.757 285.082 152.139 285.47 155.991 286.026C162.562 286.976 163.01 286.87 163.241 284.293C163.459 281.868 163.494 281.848 163.547 284.119C163.6 286.414 164.171 287.343 165.251 286.887C166.032 286.557 180.871 284.907 182.2 285.003C182.976 285.058 183.611 284.485 183.611 283.728C183.611 282.896 184.083 282.868 184.808 283.659C185.466 284.376 186.311 284.42 186.685 283.757C187.063 283.088 187.75 283.238 188.228 284.094C188.764 285.053 189.848 285.186 191.095 284.447C192.198 283.793 193.31 283.403 193.566 283.581C193.822 283.76 194.197 283.141 194.398 282.208C194.675 280.924 195.036 280.923 195.867 282.197C196.473 283.127 197.179 283.515 197.435 283.06C197.692 282.606 199.347 281.911 201.114 281.518C202.881 281.124 204.476 280.11 204.658 279.263C204.841 278.416 205.431 277.747 205.97 277.778C207.319 277.853 208.831 277.846 209.899 277.76C210.392 277.721 210.797 276.737 210.797 275.574C210.797 274.411 211.143 273.46 211.566 273.46C211.989 273.46 212.335 274.122 212.335 274.93C212.335 275.739 212.667 276.4 213.073 276.4C213.597 276.4 213.802 274.682 213.781 270.449C213.766 267.175 213.895 264.087 214.07 263.587C214.245 263.088 214.387 264.411 214.387 266.529C214.387 270.831 215.367 277.871 215.967 277.871C216.927 277.871 217.978 275.914 217.978 274.124C217.978 270.814 219.122 269.923 219.826 272.685C220.617 275.783 222.341 274.58 221.894 271.243C221.723 269.961 221.89 269.049 222.299 269.049C222.683 269.049 223.13 270.042 223.293 271.255C223.455 272.468 224.115 273.384 224.758 273.289C225.627 273.163 225.697 272.945 225.031 272.447C223.988 271.666 223.814 269.049 224.804 269.049C225.174 269.049 225.923 269.987 226.47 271.133C227.172 272.604 227.653 272.767 228.107 271.688C228.559 270.612 228.749 270.668 228.749 271.877C228.749 273.016 229.31 273.292 230.417 272.7C232.197 271.746 232.801 271.452 237.982 269.017C239.816 268.154 241.778 266.841 242.342 266.096C242.907 265.352 243.945 264.812 244.651 264.897C246.484 265.121 249.95 263.16 250.524 261.575C250.792 260.834 251.449 260.228 251.984 260.228C252.518 260.228 253.569 258.993 254.317 257.482C255.245 255.612 256.006 255.11 256.705 255.909C258.327 257.762 259.006 257.479 258.686 255.082C258.498 253.686 258.692 252.877 259.214 252.877C259.668 252.877 260.039 253.539 260.039 254.347C260.039 255.156 260.385 255.817 260.808 255.817C261.717 255.817 261.726 255.656 261.077 250.767C260.752 248.316 260.752 246.996 261.077 246.996C261.352 246.996 261.578 247.988 261.578 249.201C261.578 250.414 262.02 251.407 262.561 251.407C263.102 251.407 263.621 252.048 263.715 252.831C263.815 253.666 264.864 253.247 266.246 251.82C268.032 249.975 268.75 248.294 269.195 244.917L269.783 240.454L270.564 243.648C271.307 246.69 271.446 246.742 273.44 244.725C274.593 243.559 275.709 242.912 275.92 243.287C276.132 243.66 276.201 242.411 276.074 240.508C275.848 237.11 276.991 233.247 277.339 236.236C277.436 237.074 277.815 238.932 278.181 240.367C278.769 242.669 279.083 242.765 280.855 241.181C281.961 240.195 283.843 238.123 285.039 236.577C286.235 235.03 287.567 233.764 287.999 233.764C288.43 233.764 289.698 232.11 290.815 230.089C291.932 228.067 293.181 226.413 293.59 226.413C293.998 226.413 294.638 225.585 295.01 224.575C295.383 223.565 296.463 222.56 297.41 222.344C298.357 222.126 299.62 220.969 300.217 219.771C300.814 218.572 301.712 217.592 302.214 217.592C302.715 217.592 303.126 216.599 303.126 215.386C303.126 214.15 303.583 213.181 304.167 213.181C304.741 213.181 305.343 212.189 305.505 210.976C305.667 209.763 306.358 208.771 307.04 208.771C307.891 208.771 308.434 207.616 308.768 205.095C309.245 201.499 310.307 199.977 310.307 202.89C310.307 205.064 311.296 204.674 312.175 202.155C312.599 200.942 313.335 199.949 313.812 199.949C314.29 199.949 314.908 198.514 315.186 196.762C315.465 195.008 316.153 192.858 316.715 191.984C317.277 191.109 318.247 188.905 318.87 187.085C319.494 185.266 320.188 183.749 320.413 183.715C320.638 183.68 321.399 181.574 322.104 179.034C322.81 176.493 324.023 172.681 324.801 170.564C326.688 165.426 329.687 148.168 328.25 150.713C327.213 152.552 327.577 145.603 328.9 138.319C329.696 133.937 330.167 129.967 329.945 129.498C329.723 129.028 329.541 124.067 329.541 118.474C329.54 111.657 329.329 108.102 328.9 107.692C328.547 107.355 328.26 106.214 328.26 105.156C328.26 104.096 327.935 102.872 327.538 102.437C327.142 102.001 326.663 99.6218 326.473 97.1503C326.284 94.6789 325.916 92.2795 325.655 91.8179C325.395 91.3577 325.174 89.5302 325.164 87.7586C325.153 85.987 324.634 82.8569 324.009 80.803C322.455 75.6881 319.027 68.5987 319.027 70.4953C319.027 71.3451 318.681 72.0405 318.257 72.0405C317.834 72.0405 317.488 71.4848 317.488 70.807C317.488 70.1278 316.911 68.8178 316.206 67.8975C315.5 66.9756 314.918 65.0511 314.91 63.6177C314.898 60.9566 311.983 55.8682 310.47 55.8682C310.02 55.8682 309.322 54.7096 308.92 53.2953C308.419 51.5266 308.11 51.2679 307.934 52.469C307.761 53.6511 307.343 53.2541 306.64 51.2385C305.919 49.1713 305.223 48.5347 304.363 49.1522C303.669 49.6521 303.126 49.3933 303.126 48.5641C303.126 46.1647 299.447 40.2339 297.227 39.0533C296.098 38.4535 294.939 37.4023 294.649 36.7186C293.587 34.2045 288.229 29.8704 284.484 28.4972C283.311 28.0679 281.602 27.1563 280.685 26.4727C279.556 25.6317 279.018 25.7493 279.018 26.8388C279.018 27.7224 278.498 27.0711 277.863 25.3891C277.139 23.4705 275.754 22.062 274.145 21.6048C272.734 21.2034 270.426 20.1346 269.015 19.2275C267.605 18.3218 265.114 17.3221 263.48 17.0045C261.845 16.6884 260.23 15.793 259.889 15.0153C259.548 14.2376 257.654 13.5407 255.679 13.4657C252.141 13.3319 251.299 13.0305 249.78 11.3589C248.399 9.84015 243.625 9.21972 243.625 10.5591C243.625 11.278 243.198 11.2119 242.677 10.4121C242.026 9.41232 241.546 9.4873 241.139 10.6546C240.692 11.9352 240.547 11.8485 240.547 10.3047C240.547 8.81541 240.372 8.94773 239.901 10.7899C239.173 13.6451 237.108 13.3731 236.453 10.3371C236.173 9.03594 235.5 8.70073 234.418 9.32116C233.319 9.95041 232.912 9.73723 233.146 8.65222C233.361 7.65247 233.051 7.73039 232.314 8.86099C231.341 10.3533 231.039 10.2709 230.558 8.38611C230.036 6.34251 229.916 6.36162 229.393 8.56694C228.853 10.8472 228.807 10.8384 228.78 8.45374C228.763 7.03939 228.692 5.82058 228.621 5.74707C228.551 5.67503 226.199 5.32218 223.396 4.96492C220.592 4.60618 218.016 3.64172 217.671 2.82134C217.241 1.79807 216.929 1.85541 216.683 3.00071C216.447 4.09161 215.673 4.30332 214.456 3.60791C211.28 1.79072 209.258 1.93921 209.258 3.99016C209.258 5.02961 209.027 5.88086 208.745 5.88086C208.463 5.88086 208.29 5.13693 208.36 4.22687C208.431 3.3168 207.911 2.39351 207.206 2.17445C206.501 1.95539 205.405 1.29967 204.77 0.715994C203.896 -0.0852732 203.615 0.235233 203.615 2.03331C203.615 3.3418 203.885 4.41064 204.214 4.41064C204.543 4.41064 204.64 4.90611 204.428 5.51036C204.217 6.11609 203.754 5.47361 203.4 4.08279C202.523 0.645425 200.133 0.40431 198.042 3.54175C196.683 5.58094 196.193 5.74707 195.734 4.31949C195.295 2.95366 195.309 2.764 195.793 3.54616C196.187 4.18276 196.434 3.69906 196.434 2.29206C196.434 1.03209 196.139 0 195.779 0C194.982 0 192.823 4.00487 191.946 7.11143C191.389 9.0874 191.305 8.95067 191.305 6.06317C191.305 3.4109 191.098 2.93014 190.279 3.67554C189.548 4.34007 189.253 3.94018 189.253 2.28177C189.253 0.577794 188.806 0.0279335 187.586 0.230823C186.669 0.385196 185.546 1.03356 185.089 1.67311C184.632 2.31265 184.119 2.43615 183.948 1.94656C183.777 1.45551 181.52 0.865955 178.932 0.635132C175.374 0.319035 173.934 0.765981 173.025 2.4729C172.017 4.36654 171.78 4.40035 171.55 2.68461C171.262 0.536629 169.377 0.160252 168.317 2.03919C167.973 2.64639 167.803 3.65201 167.936 4.27244C168.07 4.89288 167.865 6.69242 167.479 8.26849C166.881 10.7149 165.175 11.6176 163.606 10.318C163.173 9.95924 165.885 6.87178 166.362 7.182C166.608 7.34078 166.666 6.39837 166.49 5.08547C166.315 3.77404 166.171 2.08771 166.171 1.34084C166.171 0.551332 164.503 0.34256 162.196 0.842433C157.507 1.85688 157.59 1.85982 155.784 0.623371C154.705 -0.116147 154.373 0.195538 154.373 1.94656C154.373 3.97546 154.213 3.99604 152.963 2.1274C151.032 -0.7601 147.193 -0.573384 145.671 2.48172C144.795 4.24157 144.376 4.45475 144.232 3.21683C143.934 0.654245 141.273 1.08796 140.48 3.82697C139.86 5.97054 139.725 5.92497 138.989 3.32122C138.302 0.888011 138.081 0.765983 137.513 2.50966ZM144.115 6.61597C144.115 7.82889 143.884 8.90362 143.602 9.00507C143.32 9.10651 142.85 9.27117 142.557 9.37262C142.264 9.47406 141.806 10.5488 141.539 11.7617C140.849 14.8889 140.874 10.9678 141.568 7.25404C142.193 3.90489 144.115 3.42413 144.115 6.61597ZM116.929 9.46965C116.929 9.82692 116.698 10.5267 116.416 11.0266C116.134 11.5265 115.903 11.2339 115.903 10.3782C115.903 9.52258 116.134 8.82129 116.416 8.82129C116.698 8.82129 116.929 9.11239 116.929 9.46965ZM101.82 17.5382C101.315 19.8773 100.503 17.9719 100.861 15.2917C101.059 13.8171 101.339 13.5348 101.667 14.4757C101.943 15.2682 102.012 16.6458 101.82 17.5382ZM227.211 15.4373C227.211 16.6502 226.872 17.6426 226.457 17.6426C225.999 17.6426 225.82 16.781 225.999 15.4373C226.162 14.2243 226.501 13.2319 226.753 13.2319C227.004 13.2319 227.211 14.2243 227.211 15.4373ZM232.56 14.3346C232.305 14.9418 231.923 16.0989 231.713 16.9075C231.494 17.747 231.326 17.2736 231.322 15.8048C231.318 14.3743 231.694 13.2319 232.169 13.2319C232.639 13.2319 232.815 13.7274 232.56 14.3346ZM99.4889 17.6426C99.4889 18.4512 99.2581 19.1128 98.9759 19.1128C98.6938 19.1128 98.463 18.4512 98.463 17.6426C98.463 16.834 98.6938 16.1724 98.9759 16.1724C99.2581 16.1724 99.4889 16.834 99.4889 17.6426ZM115.764 17.0604C115.594 17.5485 115.151 17.6014 114.781 17.1765C114.372 16.7075 114.493 16.3591 115.091 16.2885C115.632 16.2253 115.934 16.5723 115.764 17.0604ZM240.547 19.2245C240.547 19.9199 240.201 20.1096 239.778 19.645C239.354 19.179 239.008 18.2277 239.008 17.5308C239.008 16.8354 239.354 16.6458 239.778 17.1104C240.201 17.5764 240.547 18.5276 240.547 19.2245ZM251.319 17.6426C251.319 18.4512 250.915 19.1025 250.421 19.0907C249.654 19.0716 249.635 18.8599 250.293 17.6426C251.261 15.8489 251.319 15.8489 251.319 17.6426ZM89.9995 20.583C90.1739 21.3916 90.0718 22.0532 89.7733 22.0532C89.4748 22.0532 89.2301 21.3916 89.2301 20.583C89.2301 19.7744 89.3317 19.1128 89.4563 19.1128C89.5809 19.1128 89.8251 19.7744 89.9995 20.583ZM224.133 20.583C224.133 21.3916 223.888 22.0532 223.59 22.0532C223.291 22.0532 223.189 21.3916 223.364 20.583C223.538 19.7744 223.782 19.1128 223.907 19.1128C224.031 19.1128 224.133 19.7744 224.133 20.583ZM236.933 24.1777C237.4 25.789 237.42 26.4639 237.003 26.4639C236.677 26.4639 236.278 25.4715 236.116 24.2585C235.954 23.0456 235.499 22.0532 235.106 22.0532C234.713 22.0532 234.392 21.3681 234.392 20.5316C234.392 18.6276 235.99 20.9197 236.933 24.1777ZM230.149 21.471C229.979 21.9591 229.536 22.0121 229.167 21.5872C228.757 21.1182 228.879 20.7697 229.476 20.6992C230.017 20.6359 230.32 20.9829 230.149 21.471ZM79.8264 25.9743C79.158 27.8885 79.4981 30.8745 80.3819 30.8525C81.0918 30.8348 81.1318 30.5614 80.5727 29.5454C80.1839 28.8397 80.0244 27.5268 80.2183 26.6285C80.6061 24.8305 80.3655 24.4291 79.8264 25.9743ZM249.128 30.2923C248.958 30.7804 248.515 30.8333 248.145 30.4085C247.736 29.9395 247.857 29.591 248.455 29.5204C248.996 29.4572 249.298 29.8042 249.128 30.2923ZM250.806 32.3447C250.806 33.1533 250.575 33.8149 250.293 33.8149C250.011 33.8149 249.78 33.1533 249.78 32.3447C249.78 31.5361 250.011 30.8745 250.293 30.8745C250.575 30.8745 250.806 31.5361 250.806 32.3447ZM256.448 33.0798C256.448 34.2928 256.217 35.2852 255.935 35.2852C255.653 35.2852 255.422 34.2928 255.422 33.0798C255.422 31.8669 255.653 30.8745 255.935 30.8745C256.217 30.8745 256.448 31.8669 256.448 33.0798ZM270.81 36.107C270.81 37.367 270.58 37.9904 270.298 37.4905C270.015 36.9906 269.785 35.96 269.785 35.1984C269.785 34.4368 270.015 33.8149 270.298 33.8149C270.58 33.8149 270.81 34.847 270.81 36.107ZM289.789 49.2522C289.789 50.4651 289.443 51.4575 289.02 51.4575C288.597 51.4575 288.25 50.4651 288.25 49.2522C288.25 48.0393 288.597 47.0469 289.02 47.0469C289.443 47.0469 289.789 48.0393 289.789 49.2522ZM307.569 62.1166C307.427 63.1281 307.31 62.3004 307.31 60.2788C307.31 58.2573 307.427 57.431 307.569 58.441C307.711 59.4525 307.711 61.1065 307.569 62.1166ZM65.8914 79.3916C65.717 80.2002 65.8191 80.8618 66.1176 80.8618C66.4161 80.8618 66.6608 80.2002 66.6608 79.3916C66.6608 78.583 66.5592 77.9214 66.4346 77.9214C66.3099 77.9214 66.0658 78.583 65.8914 79.3916ZM59.0477 85.2725C59.0477 87.294 59.1642 88.1217 59.3063 87.1102C59.4489 86.1002 59.4489 84.4462 59.3063 83.4347C59.1642 82.4247 59.0477 83.2509 59.0477 85.2725ZM48.2904 87.0573C47.4912 89.3479 47.5107 91.5767 48.3232 90.7328C48.6761 90.3668 49.3537 91.0372 49.8297 92.2236C50.3057 93.4116 50.9402 93.9467 51.2403 93.416C51.9712 92.1207 51.9348 89.6831 51.1849 89.6831C50.8546 89.6831 50.2047 88.6995 49.7415 87.4984C49.0916 85.812 48.7597 85.7121 48.2904 87.0573ZM41.3914 93.5027C41.2226 93.9864 41.2082 95.3052 41.3596 96.4358C41.5801 98.0839 41.18 98.3118 39.3401 97.5884C37.8793 97.0151 36.917 97.2856 36.6913 98.3309C36.4964 99.2351 36.5815 99.9746 36.8801 99.9746C37.1786 99.9746 37.4233 101.546 37.4233 103.466C37.4233 106.211 37.6977 106.958 38.7056 106.958C39.6089 106.958 39.988 106.158 39.988 104.253C39.988 101.276 41.4165 98.525 42.4249 99.5615C42.8538 100.003 42.9522 99.3689 42.7224 97.6517C42.4875 95.8992 42.5691 95.4199 42.9784 96.1447C43.3087 96.7298 43.5785 96.5784 43.5785 95.808C43.5785 95.0376 43.2133 94.007 42.7671 93.516C41.7715 92.4206 41.7684 92.4206 41.3914 93.5027ZM44.6044 96.6534C44.6044 99.3645 45.5523 100.263 46.5238 98.4735C47.2512 97.1327 47.264 96.9533 46.5905 97.5429C46.1309 97.9457 45.4964 97.5326 45.1799 96.6255C44.7547 95.4067 44.6044 95.414 44.6044 96.6534ZM33.5762 101.445C33.4018 102.253 33.5039 102.915 33.8024 102.915C34.101 102.915 34.3456 103.853 34.3456 104.998C34.3456 108.017 35.5305 108.697 36.2066 106.067C36.6431 104.369 36.6205 103.344 36.1148 101.896C35.3192 99.6144 34.0204 99.3836 33.5762 101.445ZM30.1139 105.398C29.6199 105.769 29.2162 107.265 29.2162 108.724C29.2162 110.182 28.8269 112.285 28.3509 113.395C27.5974 115.15 27.5266 115.094 27.8057 112.961C27.996 111.501 27.8277 110.182 27.3886 109.699C26.9834 109.253 26.6516 109.53 26.6516 110.312C26.6516 111.095 26.3053 111.736 25.8821 111.736C25.459 111.736 25.1127 112.377 25.1127 113.161C25.1127 113.943 24.7901 114.23 24.3951 113.795C23.2492 112.535 23.1056 115.158 24.1525 118.242C24.9994 120.738 25.1127 120.783 25.1127 118.61C25.1127 117.256 25.459 116.147 25.8821 116.147C26.3053 116.147 26.6516 117.185 26.6516 118.455C26.6516 122.316 28.8654 120.366 29.2722 116.147C29.4953 113.834 29.6461 113.426 29.6779 115.044C29.7353 117.917 30.5104 118.473 31.0392 116.019C31.2285 115.14 31.8153 114.744 32.3431 115.14C33.1269 115.726 33.2131 115.382 32.8161 113.255C32.5488 111.825 32.4703 110.251 32.6417 109.76C32.9828 108.781 31.8517 104.281 31.3337 104.556C31.1562 104.65 30.6079 105.029 30.1139 105.398ZM33.3198 110.266C32.6622 111.483 32.6806 111.695 33.448 111.714C33.942 111.726 34.3456 111.075 34.3456 110.266C34.3456 108.472 34.2877 108.472 33.3198 110.266ZM19.8828 121.25C17.2422 126.133 16.9652 127.385 18.3163 128.337C18.8097 128.684 18.464 128.7 17.5469 128.372C15.8214 127.754 15.251 129.843 16.7072 131.445C17.2325 132.022 17.4376 133.423 17.2684 135.277C17.1217 136.884 17.2109 138.2 17.4669 138.2C17.7223 138.2 17.9316 136.877 17.9316 135.26C17.9316 132.055 18.3096 131.655 19.4248 133.678C20.2649 135.202 22.0351 132.577 22.0351 129.807C22.0351 128.751 22.4085 128.345 22.9327 128.829C23.6565 129.497 23.6878 129.367 23.0938 128.16C22.4932 126.938 22.4778 126.247 23.0102 124.408C23.5401 122.579 23.5339 121.649 22.9774 119.476C22.3254 116.929 22.1726 117.016 19.8828 121.25ZM9.4681 152.902C9.64506 153.723 9.26138 154.362 8.60072 154.351C7.64768 154.331 7.56663 154.049 8.18575 152.902C9.14033 151.135 9.08698 151.135 9.4681 152.902ZM309.024 191.128C309.199 191.937 308.968 192.598 308.512 192.598C308.055 192.598 307.824 191.937 307.999 191.128C308.173 190.319 308.404 189.658 308.512 189.658C308.619 189.658 308.85 190.319 309.024 191.128ZM300.225 206.628C300.058 207.877 299.811 208.582 299.677 208.197C299.542 207.812 299.584 206.79 299.771 205.929C300.276 203.582 300.572 204.038 300.225 206.628ZM298.686 215.45C298.519 216.698 298.272 217.404 298.138 217.018C298.003 216.633 298.046 215.611 298.232 214.75C298.737 212.403 299.033 212.859 298.686 215.45ZM286.712 220.532C286.712 221.341 286.467 222.002 286.168 222.002C285.87 222.002 285.768 221.341 285.942 220.532C286.117 219.724 286.361 219.062 286.485 219.062C286.61 219.062 286.712 219.724 286.712 220.532ZM288.507 220.532C288.681 221.341 288.464 222.002 288.024 222.002C287.585 222.002 287.225 221.341 287.225 220.532C287.225 219.724 287.441 219.062 287.707 219.062C287.973 219.062 288.332 219.724 288.507 220.532ZM254.396 249.937C254.396 250.745 254.166 251.407 253.883 251.407C253.601 251.407 253.371 250.745 253.371 249.937C253.371 249.128 253.601 248.466 253.883 248.466C254.166 248.466 254.396 249.128 254.396 249.937ZM56.0604 263.314C56.2953 263.818 56.1225 264.631 55.6757 265.122C55.0904 265.766 54.8632 265.137 54.8632 262.877C54.8632 261.151 55.0366 260.337 55.2479 261.069C55.4592 261.8 55.825 262.811 56.0604 263.314ZM64.983 265.527C64.8127 266.015 64.37 266.068 64.0002 265.643C63.5909 265.174 63.7124 264.825 64.31 264.755C64.8506 264.692 65.1533 265.039 64.983 265.527ZM190.792 271.255C190.792 272.522 190.329 273.46 189.704 273.46C188.794 273.46 188.72 273.097 189.253 271.255C189.605 270.042 190.094 269.049 190.342 269.049C190.589 269.049 190.792 270.042 190.792 271.255ZM134.625 271.99C134.8 272.798 134.569 273.46 134.112 273.46C133.656 273.46 133.425 272.798 133.599 271.99C133.774 271.181 134.005 270.52 134.112 270.52C134.22 270.52 134.451 271.181 134.625 271.99ZM114.364 272.546C114.364 272.85 114.018 273.923 113.595 274.93C112.964 276.43 112.825 276.328 112.825 274.374C112.825 273.063 113.172 271.99 113.595 271.99C114.018 271.99 114.364 272.24 114.364 272.546ZM148.218 272.638C148.218 272.995 147.987 273.695 147.705 274.195C147.423 274.695 147.192 274.402 147.192 273.547C147.192 272.691 147.423 271.99 147.705 271.99C147.987 271.99 148.218 272.281 148.218 272.638ZM125.435 276.4C125.835 276.4 126.162 277.724 126.162 279.341C126.162 280.958 126.03 282.281 125.869 282.281C125.279 282.281 124.363 278.529 124.253 275.665C124.191 274.048 124.268 273.553 124.424 274.563C124.58 275.574 125.035 276.4 125.435 276.4ZM104.105 279.341C104.105 281.236 104.365 282.278 104.746 281.914C105.099 281.577 105.388 280.418 105.388 279.341C105.388 278.263 105.099 277.105 104.746 276.768C104.365 276.403 104.105 277.446 104.105 279.341ZM136.771 279.617C136.607 280.789 136.486 280.441 136.461 278.728C136.439 277.178 136.56 276.311 136.73 276.799C136.901 277.287 136.919 278.556 136.771 279.617ZM138.216 283.751C138.39 284.56 138.173 285.222 137.733 285.222C137.294 285.222 136.933 284.56 136.933 283.751C136.933 282.943 137.15 282.281 137.416 282.281C137.682 282.281 138.041 282.943 138.216 283.751Z" fill="#2400FF" fill-opacity="0.43"/>
</svg>
